# xmcd
#
# Track frame offsets: 
#        150
#        13517
#        24812
#        36880
#        51262
#        63635
#        75560
#        90847
#        104634
#        117402
#
# Disc length: 1727 seconds
#
# Revision: 0
# Processed by: cddbd v1.5.2PL0 Copyright (c) Steve Scherf et al.
# Submitted via: ExactAudioCopy v0.95b2
#
DISCID=7406bd0a
DTITLE=Tyrone Davis - Turn Back The Hands Of Time [Brunswick]
DYEAR=1970
DGENRE=R&B
TTITLE0=Turn Back The Hands Of Time
TTITLE1=All The Waiting Is Not In Vain
TTITLE2=Let Me Back In
TTITLE3=Love Bones
TTITLE4=I'll Be Right Here
TTITLE5=Is It Something You've Got?
TTITLE6=Undying Love
TTITLE7=Just Because Of You
TTITLE8=If It's Love That You're After
TTITLE9=I Keep Coming Back
EXTD=
EXTT0=
EXTT1=
EXTT2=
EXTT3=
EXTT4=
EXTT5=
EXTT6=
EXTT7=
EXTT8=
EXTT9=
PLAYORDER=
